<svg width="218" height="218" viewBox="0 0 218 218" fill="none" xmlns="http://www.w3.org/2000/svg">
<g filter="url(#filter0_d_82_69)">
<rect width="210" height="210" transform="translate(4)" fill="#FCCF33"/>
<g clip-path="url(#clip0_82_69)">
<path d="M137.573 103.232C121.803 94.8044 106.702 87.0565 91.2671 78.967V127.36C107.51 118.53 124.63 110.444 137.64 103.232H137.573Z" fill="white"/>
<path d="M137.573 103.232C121.803 94.8044 91.2671 78.967 91.2671 78.967L131.979 106.331C131.979 106.331 124.563 110.444 137.573 103.232Z" fill="#E8E0E0"/>
<path d="M94.2347 165.241C61.4781 164.638 50.2901 164.096 43.4133 162.679C38.7607 161.738 34.7176 159.648 31.7531 156.616C29.4619 154.322 27.6397 150.821 26.2261 145.964C25.0135 141.918 24.5412 138.551 23.8679 130.328C22.8371 111.768 22.5914 96.5947 23.8679 79.6404C24.9209 70.2777 25.4315 59.1631 32.4264 52.6788C35.7292 49.6441 39.5712 47.6911 43.8856 46.8838C50.6252 45.6042 79.3387 44.5926 109.064 44.5926C138.722 44.5926 167.499 45.6042 174.245 46.8838C179.635 47.8954 184.689 50.9269 187.657 54.836C194.039 64.8752 194.151 77.3587 194.799 87.1235C195.067 91.7761 195.067 118.195 194.799 122.848C193.79 138.28 192.98 143.74 190.689 149.401C189.272 152.975 188.062 154.861 185.969 156.951C182.686 160.168 178.501 162.307 173.971 163.084C145.624 165.216 121.554 165.679 94.2347 165.241ZM137.643 103.232C121.873 94.8045 106.773 86.9895 91.3372 78.9V127.296C107.58 118.466 124.703 110.377 137.71 103.165L137.643 103.232Z" fill="#CD201F"/>
</g>
</g>
<defs>
<filter id="filter0_d_82_69" x="0" y="0" width="218" height="218" filterUnits="userSpaceOnUse" color-interpolation-filters="sRGB">
<feFlood flood-opacity="0" result="BackgroundImageFix"/>
<feColorMatrix in="SourceAlpha" type="matrix" values="0 0 0 0 0 0 0 0 0 0 0 0 0 0 0 0 0 0 127 0" result="hardAlpha"/>
<feOffset dy="4"/>
<feGaussianBlur stdDeviation="2"/>
<feComposite in2="hardAlpha" operator="out"/>
<feColorMatrix type="matrix" values="0 0 0 0 0 0 0 0 0 0 0 0 0 0 0 0 0 0 0.25 0"/>
<feBlend mode="normal" in2="BackgroundImageFix" result="effect1_dropShadow_82_69"/>
<feBlend mode="normal" in="SourceGraphic" in2="effect1_dropShadow_82_69" result="shape"/>
</filter>
<clipPath id="clip0_82_69">
<rect width="172" height="172" fill="white" transform="translate(23 19)"/>
</clipPath>
</defs>
</svg>
