<svg width="218" height="218" viewBox="0 0 218 218" fill="none" xmlns="http://www.w3.org/2000/svg">
<g filter="url(#filter0_d_82_70)">
<rect width="210" height="210" transform="translate(4)" fill="#FCCF33"/>
<g clip-path="url(#clip0_82_70)">
<path d="M80.3416 105C80.3416 89.1684 93.1721 76.331 109.004 76.331C124.835 76.331 137.673 89.1684 137.673 105C137.673 120.832 124.835 133.669 109.004 133.669C93.1721 133.669 80.3416 120.832 80.3416 105ZM64.8437 105C64.8437 129.39 84.6141 149.16 109.004 149.16C133.393 149.16 153.164 129.39 153.164 105C153.164 80.6104 133.393 60.84 109.004 60.84C84.6141 60.84 64.8437 80.6104 64.8437 105ZM144.592 59.0891C144.591 61.1302 145.195 63.1257 146.329 64.8233C147.462 66.5208 149.073 67.8442 150.959 68.6261C152.844 69.4079 154.919 69.6131 156.921 69.2157C158.923 68.8183 160.762 67.8362 162.206 66.3935C163.65 64.9508 164.634 63.1123 165.033 61.1106C165.432 59.1089 165.228 57.0338 164.448 55.1477C163.668 53.2617 162.345 51.6494 160.649 50.5147C158.952 49.3801 156.957 48.774 154.916 48.7732H154.912C152.176 48.7745 149.552 49.8616 147.617 51.7958C145.682 53.73 144.594 56.3531 144.592 59.0891ZM74.2597 175.002C65.875 174.62 61.3177 173.223 58.2891 172.044C54.274 170.48 51.4091 168.619 48.3971 165.611C45.385 162.603 43.5205 159.741 41.9643 155.726C40.7836 152.698 39.387 148.14 39.0059 139.755C38.5889 130.69 38.5057 127.967 38.5057 105.001C38.5057 82.0346 38.5958 79.319 39.0059 70.2464C39.3877 61.8617 40.7947 57.312 41.9643 54.2758C43.5274 50.2607 45.3891 47.3958 48.3971 44.3838C51.405 41.3717 54.2671 39.5072 58.2891 37.951C61.3163 36.7704 65.875 35.3737 74.2597 34.9926C83.3248 34.5756 86.0479 34.4924 109.004 34.4924C131.959 34.4924 134.685 34.5825 143.758 34.9926C152.143 35.3744 156.692 36.7814 159.729 37.951C163.744 39.5072 166.609 41.3758 169.621 44.3838C172.633 47.3917 174.49 50.2607 176.053 54.2758C177.234 57.303 178.631 61.8617 179.012 70.2464C179.429 79.319 179.512 82.0346 179.512 105.001C179.512 127.967 179.429 130.682 179.012 139.755C178.63 148.14 177.226 152.697 176.053 155.726C174.49 159.741 172.629 162.606 169.621 165.611C166.613 168.616 163.744 170.48 159.729 172.044C156.701 173.224 152.143 174.621 143.758 175.002C134.693 175.419 131.97 175.502 109.004 175.502C86.0375 175.502 83.322 175.419 74.2597 175.002ZM73.5476 19.5208C64.3924 19.9377 58.1364 21.3894 52.673 23.5153C47.0149 25.7108 42.225 28.6561 37.4386 33.4349C32.6522 38.2138 29.7144 43.0112 27.519 48.6693C25.3931 54.1362 23.9414 60.3887 23.5245 69.5439C23.1007 78.7136 23.0037 81.6452 23.0037 105C23.0037 128.355 23.1007 131.286 23.5245 140.456C23.9414 149.612 25.3931 155.864 27.519 161.331C29.7144 166.985 32.6529 171.788 37.4386 176.565C42.2243 181.342 47.0149 184.283 52.673 186.485C58.1467 188.611 64.3924 190.062 73.5476 190.479C82.7221 190.896 85.6488 191 109.004 191C132.359 191 135.29 190.903 144.46 190.479C153.616 190.062 159.868 188.611 165.334 186.485C170.989 184.283 175.782 181.344 180.569 176.565C185.355 171.786 188.287 166.985 190.488 161.331C192.614 155.864 194.073 149.611 194.483 140.456C194.9 131.28 194.997 128.355 194.997 105C194.997 81.6452 194.9 78.7136 194.483 69.5439C194.066 60.388 192.614 54.1327 190.488 48.6693C188.287 43.0146 185.348 38.2213 180.569 33.4349C175.79 28.6485 170.989 25.7108 165.341 23.5153C159.868 21.3894 153.615 19.9309 144.467 19.5208C135.297 19.1039 132.365 19 109.011 19C85.6557 19 82.7221 19.097 73.5476 19.5208Z" fill="url(#paint0_radial_82_70)"/>
<path d="M80.3416 105C80.3416 89.1684 93.1721 76.331 109.004 76.331C124.835 76.331 137.673 89.1684 137.673 105C137.673 120.832 124.835 133.669 109.004 133.669C93.1721 133.669 80.3416 120.832 80.3416 105ZM64.8437 105C64.8437 129.39 84.6141 149.16 109.004 149.16C133.393 149.16 153.164 129.39 153.164 105C153.164 80.6104 133.393 60.84 109.004 60.84C84.6141 60.84 64.8437 80.6104 64.8437 105ZM144.592 59.0891C144.591 61.1302 145.195 63.1257 146.329 64.8233C147.462 66.5208 149.073 67.8442 150.959 68.6261C152.844 69.4079 154.919 69.6131 156.921 69.2157C158.923 68.8183 160.762 67.8362 162.206 66.3935C163.65 64.9508 164.634 63.1123 165.033 61.1106C165.432 59.1089 165.228 57.0338 164.448 55.1477C163.668 53.2617 162.345 51.6494 160.649 50.5147C158.952 49.3801 156.957 48.774 154.916 48.7732H154.912C152.176 48.7745 149.552 49.8616 147.617 51.7958C145.682 53.73 144.594 56.3531 144.592 59.0891ZM74.2597 175.002C65.875 174.62 61.3177 173.223 58.2891 172.044C54.274 170.48 51.4091 168.619 48.3971 165.611C45.385 162.603 43.5205 159.741 41.9643 155.726C40.7836 152.698 39.387 148.14 39.0059 139.755C38.5889 130.69 38.5057 127.967 38.5057 105.001C38.5057 82.0346 38.5958 79.319 39.0059 70.2464C39.3877 61.8617 40.7947 57.312 41.9643 54.2758C43.5274 50.2607 45.3891 47.3958 48.3971 44.3838C51.405 41.3717 54.2671 39.5072 58.2891 37.951C61.3163 36.7704 65.875 35.3737 74.2597 34.9926C83.3248 34.5756 86.0479 34.4924 109.004 34.4924C131.959 34.4924 134.685 34.5825 143.758 34.9926C152.143 35.3744 156.692 36.7814 159.729 37.951C163.744 39.5072 166.609 41.3758 169.621 44.3838C172.633 47.3917 174.49 50.2607 176.053 54.2758C177.234 57.303 178.631 61.8617 179.012 70.2464C179.429 79.319 179.512 82.0346 179.512 105.001C179.512 127.967 179.429 130.682 179.012 139.755C178.63 148.14 177.226 152.697 176.053 155.726C174.49 159.741 172.629 162.606 169.621 165.611C166.613 168.616 163.744 170.48 159.729 172.044C156.701 173.224 152.143 174.621 143.758 175.002C134.693 175.419 131.97 175.502 109.004 175.502C86.0375 175.502 83.322 175.419 74.2597 175.002ZM73.5476 19.5208C64.3924 19.9377 58.1364 21.3894 52.673 23.5153C47.0149 25.7108 42.225 28.6561 37.4386 33.4349C32.6522 38.2138 29.7144 43.0112 27.519 48.6693C25.3931 54.1362 23.9414 60.3887 23.5245 69.5439C23.1007 78.7136 23.0037 81.6452 23.0037 105C23.0037 128.355 23.1007 131.286 23.5245 140.456C23.9414 149.612 25.3931 155.864 27.519 161.331C29.7144 166.985 32.6529 171.788 37.4386 176.565C42.2243 181.342 47.0149 184.283 52.673 186.485C58.1467 188.611 64.3924 190.062 73.5476 190.479C82.7221 190.896 85.6488 191 109.004 191C132.359 191 135.29 190.903 144.46 190.479C153.616 190.062 159.868 188.611 165.334 186.485C170.989 184.283 175.782 181.344 180.569 176.565C185.355 171.786 188.287 166.985 190.488 161.331C192.614 155.864 194.073 149.611 194.483 140.456C194.9 131.28 194.997 128.355 194.997 105C194.997 81.6452 194.9 78.7136 194.483 69.5439C194.066 60.388 192.614 54.1327 190.488 48.6693C188.287 43.0146 185.348 38.2213 180.569 33.4349C175.79 28.6485 170.989 25.7108 165.341 23.5153C159.868 21.3894 153.615 19.9309 144.467 19.5208C135.297 19.1039 132.365 19 109.011 19C85.6557 19 82.7221 19.097 73.5476 19.5208Z" fill="url(#paint1_radial_82_70)"/>
</g>
</g>
<defs>
<filter id="filter0_d_82_70" x="0" y="0" width="218" height="218" filterUnits="userSpaceOnUse" color-interpolation-filters="sRGB">
<feFlood flood-opacity="0" result="BackgroundImageFix"/>
<feColorMatrix in="SourceAlpha" type="matrix" values="0 0 0 0 0 0 0 0 0 0 0 0 0 0 0 0 0 0 127 0" result="hardAlpha"/>
<feOffset dy="4"/>
<feGaussianBlur stdDeviation="2"/>
<feComposite in2="hardAlpha" operator="out"/>
<feColorMatrix type="matrix" values="0 0 0 0 0 0 0 0 0 0 0 0 0 0 0 0 0 0 0.25 0"/>
<feBlend mode="normal" in2="BackgroundImageFix" result="effect1_dropShadow_82_70"/>
<feBlend mode="normal" in="SourceGraphic" in2="effect1_dropShadow_82_70" result="shape"/>
</filter>
<radialGradient id="paint0_radial_82_70" cx="0" cy="0" r="1" gradientUnits="userSpaceOnUse" gradientTransform="translate(45.8549 191.813) scale(224.532 224.532)">
<stop offset="0.09" stop-color="#FA8F21"/>
<stop offset="0.78" stop-color="#D82D7E"/>
</radialGradient>
<radialGradient id="paint1_radial_82_70" cx="0" cy="0" r="1" gradientUnits="userSpaceOnUse" gradientTransform="translate(127.314 199.518) scale(176.962 176.962)">
<stop stop-color="#8C3AAA" stop-opacity="0"/>
<stop offset="0.555" stop-color="#8C3AAA" stop-opacity="0.37"/>
<stop offset="1" stop-color="#8C3AAA"/>
</radialGradient>
<clipPath id="clip0_82_70">
<rect width="172" height="172" fill="white" transform="translate(23 19)"/>
</clipPath>
</defs>
</svg>
