<svg width="93" height="93" viewBox="0 0 93 93" fill="none" xmlns="http://www.w3.org/2000/svg">
<g filter="url(#filter0_d_68_24)">
<rect width="85" height="85" transform="translate(4)" fill="#31C212"/>
<path d="M13.0046 37.1526C22.4936 37.1526 31.7234 38.4605 41.1487 39.3424C43.7849 39.5891 46.4178 39.962 49.0566 40.1535C52.3297 40.3911 56.1549 39.8244 59.3369 40.6199C62.4238 41.3916 66.1904 40.8024 69.313 40.8024C71.3475 40.8024 73.3819 40.8024 75.4163 40.8024C75.7875 40.8024 76.5113 41.3763 76.5113 41.0051C76.5113 40.016 74.844 38.5492 74.2403 37.8825C72.965 36.4744 70.787 35.5104 69.1306 34.5977C64.8211 32.2231 60.4452 29.7505 55.7479 28.2308C53.8144 27.6053 51.7688 27.4941 49.8069 26.9128C47.9244 26.355 46.0053 25.7381 44.0483 25.4935C39.6879 24.9484 46.296 27.379 47.2723 27.7442C55.4739 30.8114 63.486 34.4785 71.6854 37.5986C73.7509 38.3846 79.9826 40.4028 80.8505 42.7895C81.111 43.506 74.1046 45.4527 73.2264 45.8918C64.1401 50.435 55.5197 56.1729 46.8667 61.4846C46.2919 61.8375 44.4936 62.6621 44.1091 63.4312C42.7585 66.1323 45.1322 62.6944 45.934 61.809C48.1202 59.3951 50.0093 56.7465 52.1387 54.3066C54.8702 51.1768 59.3375 49.246 62.8042 47.0273C64.1505 46.1657 65.9487 45.5117 67.4476 45.0199C68.7648 44.5877 71.1185 44.6323 72.2937 43.8844C73.254 43.2734 74.3514 42.3223 75.0513 43.7222" stroke="black" stroke-width="3" stroke-linecap="round"/>
</g>
<defs>
<filter id="filter0_d_68_24" x="0" y="0" width="93" height="93" filterUnits="userSpaceOnUse" color-interpolation-filters="sRGB">
<feFlood flood-opacity="0" result="BackgroundImageFix"/>
<feColorMatrix in="SourceAlpha" type="matrix" values="0 0 0 0 0 0 0 0 0 0 0 0 0 0 0 0 0 0 127 0" result="hardAlpha"/>
<feOffset dy="4"/>
<feGaussianBlur stdDeviation="2"/>
<feComposite in2="hardAlpha" operator="out"/>
<feColorMatrix type="matrix" values="0 0 0 0 0 0 0 0 0 0 0 0 0 0 0 0 0 0 0.25 0"/>
<feBlend mode="normal" in2="BackgroundImageFix" result="effect1_dropShadow_68_24"/>
<feBlend mode="normal" in="SourceGraphic" in2="effect1_dropShadow_68_24" result="shape"/>
</filter>
</defs>
</svg>
